<mxfile host="app.diagrams.net" agent="Mozilla/5.0 (Windows NT 10.0; Win64; x64) AppleWebKit/537.36 (KHTML, like Gecko) Chrome/127.0.0.0 Safari/537.36" version="24.7.7">
  <diagram name="PÃ¡gina-1" id="Ga2G2UHaWwxfxkLlGmjm">
    <mxGraphModel dx="880" dy="460" grid="1" gridSize="10" guides="1" tooltips="1" connect="1" arrows="1" fold="1" page="1" pageScale="1" pageWidth="827" pageHeight="1169" background="none" math="0" shadow="0">
      <root>
        <mxCell id="0" />
        <mxCell id="1" parent="0" />
        <mxCell id="ubd-o4OMs4H7Mu53Rmq2-1" value="&lt;font style=&quot;vertical-align: inherit;&quot;&gt;&lt;font style=&quot;vertical-align: inherit;&quot;&gt;&lt;font style=&quot;vertical-align: inherit;&quot;&gt;&lt;font style=&quot;vertical-align: inherit;&quot;&gt;aluno&lt;/font&gt;&lt;/font&gt;&lt;/font&gt;&lt;/font&gt;" style="whiteSpace=wrap;html=1;align=center;" vertex="1" parent="1">
          <mxGeometry x="20" y="85" width="100" height="40" as="geometry" />
        </mxCell>
        <mxCell id="ubd-o4OMs4H7Mu53Rmq2-2" value="&lt;font style=&quot;vertical-align: inherit;&quot;&gt;&lt;font style=&quot;vertical-align: inherit;&quot;&gt;&lt;font style=&quot;vertical-align: inherit;&quot;&gt;&lt;font style=&quot;vertical-align: inherit;&quot;&gt;trabalho&lt;/font&gt;&lt;/font&gt;&lt;/font&gt;&lt;/font&gt;" style="whiteSpace=wrap;html=1;align=center;" vertex="1" parent="1">
          <mxGeometry x="360" y="85" width="100" height="40" as="geometry" />
        </mxCell>
        <mxCell id="ubd-o4OMs4H7Mu53Rmq2-3" value="&lt;font style=&quot;vertical-align: inherit;&quot;&gt;&lt;font style=&quot;vertical-align: inherit;&quot;&gt;&lt;font style=&quot;vertical-align: inherit;&quot;&gt;&lt;font style=&quot;vertical-align: inherit;&quot;&gt;professor&lt;/font&gt;&lt;/font&gt;&lt;/font&gt;&lt;/font&gt;" style="whiteSpace=wrap;html=1;align=center;" vertex="1" parent="1">
          <mxGeometry x="720" y="85" width="100" height="40" as="geometry" />
        </mxCell>
        <mxCell id="ubd-o4OMs4H7Mu53Rmq2-4" value="&lt;font style=&quot;vertical-align: inherit;&quot;&gt;&lt;font style=&quot;vertical-align: inherit;&quot;&gt;&lt;font style=&quot;vertical-align: inherit;&quot;&gt;&lt;font style=&quot;vertical-align: inherit;&quot;&gt;realizar&lt;/font&gt;&lt;/font&gt;&lt;/font&gt;&lt;/font&gt;" style="shape=rhombus;perimeter=rhombusPerimeter;whiteSpace=wrap;html=1;align=center;" vertex="1" parent="1">
          <mxGeometry x="190" y="80" width="90" height="50" as="geometry" />
        </mxCell>
        <mxCell id="ubd-o4OMs4H7Mu53Rmq2-5" value="&lt;font style=&quot;vertical-align: inherit;&quot;&gt;&lt;font style=&quot;vertical-align: inherit;&quot;&gt;orientar&lt;/font&gt;&lt;/font&gt;" style="shape=rhombus;perimeter=rhombusPerimeter;whiteSpace=wrap;html=1;align=center;" vertex="1" parent="1">
          <mxGeometry x="540" y="80" width="100" height="50" as="geometry" />
        </mxCell>
        <mxCell id="ubd-o4OMs4H7Mu53Rmq2-6" value="" style="endArrow=none;html=1;rounded=0;" edge="1" parent="1">
          <mxGeometry relative="1" as="geometry">
            <mxPoint x="120" y="104.5" as="sourcePoint" />
            <mxPoint x="190" y="104.5" as="targetPoint" />
          </mxGeometry>
        </mxCell>
        <mxCell id="ubd-o4OMs4H7Mu53Rmq2-7" value="" style="endArrow=none;html=1;rounded=0;" edge="1" parent="1">
          <mxGeometry relative="1" as="geometry">
            <mxPoint x="280" y="104.5" as="sourcePoint" />
            <mxPoint x="360" y="104.5" as="targetPoint" />
          </mxGeometry>
        </mxCell>
        <mxCell id="ubd-o4OMs4H7Mu53Rmq2-8" value="" style="endArrow=none;html=1;rounded=0;" edge="1" parent="1">
          <mxGeometry relative="1" as="geometry">
            <mxPoint x="460" y="104.5" as="sourcePoint" />
            <mxPoint x="540" y="104.5" as="targetPoint" />
          </mxGeometry>
        </mxCell>
        <mxCell id="ubd-o4OMs4H7Mu53Rmq2-9" value="" style="endArrow=none;html=1;rounded=0;" edge="1" parent="1">
          <mxGeometry relative="1" as="geometry">
            <mxPoint x="640" y="104.5" as="sourcePoint" />
            <mxPoint x="720" y="104.5" as="targetPoint" />
          </mxGeometry>
        </mxCell>
        <mxCell id="ubd-o4OMs4H7Mu53Rmq2-19" value="&lt;font style=&quot;vertical-align: inherit;&quot;&gt;&lt;font style=&quot;vertical-align: inherit;&quot;&gt;livro&lt;/font&gt;&lt;/font&gt;" style="whiteSpace=wrap;html=1;align=center;" vertex="1" parent="1">
          <mxGeometry x="370" y="230" width="100" height="40" as="geometry" />
        </mxCell>
        <mxCell id="ubd-o4OMs4H7Mu53Rmq2-20" value="&lt;font style=&quot;vertical-align: inherit;&quot;&gt;&lt;font style=&quot;vertical-align: inherit;&quot;&gt;autor&lt;/font&gt;&lt;/font&gt;" style="whiteSpace=wrap;html=1;align=center;" vertex="1" parent="1">
          <mxGeometry x="10" y="230" width="100" height="40" as="geometry" />
        </mxCell>
        <mxCell id="ubd-o4OMs4H7Mu53Rmq2-21" value="&lt;font style=&quot;vertical-align: inherit;&quot;&gt;&lt;font style=&quot;vertical-align: inherit;&quot;&gt;escitora&lt;/font&gt;&lt;/font&gt;" style="whiteSpace=wrap;html=1;align=center;" vertex="1" parent="1">
          <mxGeometry x="730" y="232.5" width="100" height="40" as="geometry" />
        </mxCell>
        <mxCell id="ubd-o4OMs4H7Mu53Rmq2-23" value="&lt;font style=&quot;vertical-align: inherit;&quot;&gt;&lt;font style=&quot;vertical-align: inherit;&quot;&gt;publicar&lt;/font&gt;&lt;/font&gt;" style="shape=rhombus;perimeter=rhombusPerimeter;whiteSpace=wrap;html=1;align=center;" vertex="1" parent="1">
          <mxGeometry x="550" y="225" width="100" height="55" as="geometry" />
        </mxCell>
        <mxCell id="ubd-o4OMs4H7Mu53Rmq2-24" value="&lt;font style=&quot;vertical-align: inherit;&quot;&gt;&lt;font style=&quot;vertical-align: inherit;&quot;&gt;escrever&lt;/font&gt;&lt;/font&gt;" style="shape=rhombus;perimeter=rhombusPerimeter;whiteSpace=wrap;html=1;align=center;" vertex="1" parent="1">
          <mxGeometry x="190" y="222.5" width="100" height="55" as="geometry" />
        </mxCell>
        <mxCell id="ubd-o4OMs4H7Mu53Rmq2-25" value="" style="endArrow=none;html=1;rounded=0;" edge="1" parent="1">
          <mxGeometry relative="1" as="geometry">
            <mxPoint x="110" y="249.5" as="sourcePoint" />
            <mxPoint x="190" y="249.5" as="targetPoint" />
          </mxGeometry>
        </mxCell>
        <mxCell id="ubd-o4OMs4H7Mu53Rmq2-26" value="" style="endArrow=none;html=1;rounded=0;" edge="1" parent="1">
          <mxGeometry relative="1" as="geometry">
            <mxPoint x="290" y="249.5" as="sourcePoint" />
            <mxPoint x="370" y="249.5" as="targetPoint" />
          </mxGeometry>
        </mxCell>
        <mxCell id="ubd-o4OMs4H7Mu53Rmq2-27" value="" style="endArrow=none;html=1;rounded=0;" edge="1" parent="1">
          <mxGeometry relative="1" as="geometry">
            <mxPoint x="470" y="252" as="sourcePoint" />
            <mxPoint x="550" y="252" as="targetPoint" />
          </mxGeometry>
        </mxCell>
        <mxCell id="ubd-o4OMs4H7Mu53Rmq2-28" value="" style="endArrow=none;html=1;rounded=0;" edge="1" parent="1">
          <mxGeometry relative="1" as="geometry">
            <mxPoint x="650" y="252" as="sourcePoint" />
            <mxPoint x="730" y="252" as="targetPoint" />
          </mxGeometry>
        </mxCell>
        <mxCell id="ubd-o4OMs4H7Mu53Rmq2-29" value="&lt;font style=&quot;vertical-align: inherit;&quot;&gt;&lt;font style=&quot;vertical-align: inherit;&quot;&gt;&lt;font style=&quot;vertical-align: inherit;&quot;&gt;&lt;font style=&quot;vertical-align: inherit;&quot;&gt;jogador&lt;/font&gt;&lt;/font&gt;&lt;/font&gt;&lt;/font&gt;" style="whiteSpace=wrap;html=1;align=center;" vertex="1" parent="1">
          <mxGeometry x="4" y="410" width="100" height="40" as="geometry" />
        </mxCell>
        <mxCell id="ubd-o4OMs4H7Mu53Rmq2-30" value="&lt;font style=&quot;vertical-align: inherit;&quot;&gt;&lt;font style=&quot;vertical-align: inherit;&quot;&gt;&lt;font style=&quot;vertical-align: inherit;&quot;&gt;&lt;font style=&quot;vertical-align: inherit;&quot;&gt;time&lt;/font&gt;&lt;/font&gt;&lt;/font&gt;&lt;/font&gt;" style="whiteSpace=wrap;html=1;align=center;" vertex="1" parent="1">
          <mxGeometry x="363.5" y="410" width="100" height="40" as="geometry" />
        </mxCell>
        <mxCell id="ubd-o4OMs4H7Mu53Rmq2-31" value="&lt;font style=&quot;vertical-align: inherit;&quot;&gt;&lt;font style=&quot;vertical-align: inherit;&quot;&gt;&lt;font style=&quot;vertical-align: inherit;&quot;&gt;&lt;font style=&quot;vertical-align: inherit;&quot;&gt;preparador_fisico&lt;/font&gt;&lt;/font&gt;&lt;/font&gt;&lt;/font&gt;" style="whiteSpace=wrap;html=1;align=center;" vertex="1" parent="1">
          <mxGeometry x="364" y="660" width="100" height="40" as="geometry" />
        </mxCell>
        <mxCell id="ubd-o4OMs4H7Mu53Rmq2-32" value="&lt;font style=&quot;vertical-align: inherit;&quot;&gt;&lt;font style=&quot;vertical-align: inherit;&quot;&gt;&lt;font style=&quot;vertical-align: inherit;&quot;&gt;&lt;font style=&quot;vertical-align: inherit;&quot;&gt;treinar&lt;/font&gt;&lt;/font&gt;&lt;/font&gt;&lt;/font&gt;" style="shape=rhombus;perimeter=rhombusPerimeter;whiteSpace=wrap;html=1;align=center;" vertex="1" parent="1">
          <mxGeometry x="364" y="530" width="100" height="55" as="geometry" />
        </mxCell>
        <mxCell id="ubd-o4OMs4H7Mu53Rmq2-33" value="&lt;font style=&quot;vertical-align: inherit;&quot;&gt;&lt;font style=&quot;vertical-align: inherit;&quot;&gt;escrever&lt;/font&gt;&lt;/font&gt;" style="shape=rhombus;perimeter=rhombusPerimeter;whiteSpace=wrap;html=1;align=center;" vertex="1" parent="1">
          <mxGeometry x="185" y="402.5" width="100" height="55" as="geometry" />
        </mxCell>
        <mxCell id="ubd-o4OMs4H7Mu53Rmq2-34" value="" style="endArrow=none;html=1;rounded=0;" edge="1" parent="1">
          <mxGeometry relative="1" as="geometry">
            <mxPoint x="104" y="429.5" as="sourcePoint" />
            <mxPoint x="184" y="429.5" as="targetPoint" />
          </mxGeometry>
        </mxCell>
        <mxCell id="ubd-o4OMs4H7Mu53Rmq2-35" value="" style="endArrow=none;html=1;rounded=0;" edge="1" parent="1">
          <mxGeometry relative="1" as="geometry">
            <mxPoint x="285" y="429.5" as="sourcePoint" />
            <mxPoint x="365" y="429.5" as="targetPoint" />
          </mxGeometry>
        </mxCell>
        <mxCell id="ubd-o4OMs4H7Mu53Rmq2-36" value="" style="endArrow=none;html=1;rounded=0;" edge="1" parent="1">
          <mxGeometry relative="1" as="geometry">
            <mxPoint x="640" y="429.5" as="sourcePoint" />
            <mxPoint x="720" y="429.5" as="targetPoint" />
          </mxGeometry>
        </mxCell>
        <mxCell id="ubd-o4OMs4H7Mu53Rmq2-37" value="" style="endArrow=none;html=1;rounded=0;" edge="1" parent="1">
          <mxGeometry relative="1" as="geometry">
            <mxPoint x="464" y="429.5" as="sourcePoint" />
            <mxPoint x="544" y="429.5" as="targetPoint" />
          </mxGeometry>
        </mxCell>
        <mxCell id="ubd-o4OMs4H7Mu53Rmq2-38" value="&lt;font style=&quot;vertical-align: inherit;&quot;&gt;&lt;font style=&quot;vertical-align: inherit;&quot;&gt;&lt;font style=&quot;vertical-align: inherit;&quot;&gt;&lt;font style=&quot;vertical-align: inherit;&quot;&gt;tecnico&lt;/font&gt;&lt;/font&gt;&lt;/font&gt;&lt;/font&gt;" style="whiteSpace=wrap;html=1;align=center;" vertex="1" parent="1">
          <mxGeometry x="720" y="410" width="100" height="40" as="geometry" />
        </mxCell>
        <mxCell id="ubd-o4OMs4H7Mu53Rmq2-39" value="" style="endArrow=none;html=1;rounded=0;" edge="1" parent="1" target="ubd-o4OMs4H7Mu53Rmq2-32">
          <mxGeometry relative="1" as="geometry">
            <mxPoint x="414" y="450" as="sourcePoint" />
            <mxPoint x="414" y="530" as="targetPoint" />
          </mxGeometry>
        </mxCell>
        <mxCell id="ubd-o4OMs4H7Mu53Rmq2-40" value="&lt;font style=&quot;vertical-align: inherit;&quot;&gt;&lt;font style=&quot;vertical-align: inherit;&quot;&gt;coordenar&lt;/font&gt;&lt;/font&gt;" style="shape=rhombus;perimeter=rhombusPerimeter;whiteSpace=wrap;html=1;align=center;" vertex="1" parent="1">
          <mxGeometry x="540" y="402.5" width="100" height="55" as="geometry" />
        </mxCell>
        <mxCell id="ubd-o4OMs4H7Mu53Rmq2-41" value="" style="endArrow=none;html=1;rounded=0;exitX=0.5;exitY=1;exitDx=0;exitDy=0;entryX=0.5;entryY=0;entryDx=0;entryDy=0;" edge="1" parent="1" source="ubd-o4OMs4H7Mu53Rmq2-32" target="ubd-o4OMs4H7Mu53Rmq2-31">
          <mxGeometry relative="1" as="geometry">
            <mxPoint x="413" y="600" as="sourcePoint" />
            <mxPoint x="413" y="660" as="targetPoint" />
          </mxGeometry>
        </mxCell>
      </root>
    </mxGraphModel>
  </diagram>
</mxfile>
